<svg xmlns="http://www.w3.org/2000/svg" width="390" height="270" viewBox="0 0 390 270" role="img">
<style>text{font-family:-apple-system,BlinkMacSystemFont,"Segoe UI",Helvetica,Arial,sans-serif;fill:#24292F}.title{font-size:17px;font-weight:700}.label{font-size:12px}.value{font-size:13px;font-weight:700}.muted{fill:#57606A}.pink{fill:#FF2F78}</style>
<rect x="1" y="1" width="388" height="268" rx="12" fill="#FFFFFF" stroke="#FFB3C9"/>
<text x="18" y="30" class="title pink">Most Used Languages</text>
<text x="20" y="62" class="label">JavaScript</text>
<rect x="137" y="52" width="150" height="9" rx="4.5" fill="#FFF1F5"/>
<rect x="137" y="52" width="94" height="9" rx="4.5" fill="#FF2F78"/>
<text x="305" y="62" class="value">62.7%</text>
<text x="20" y="92" class="label">Python</text>
<rect x="137" y="82" width="150" height="9" rx="4.5" fill="#FFF1F5"/>
<rect x="137" y="82" width="25" height="9" rx="4.5" fill="#FF2F78"/>
<text x="305" y="92" class="value">16.9%</text>
<text x="20" y="122" class="label">HTML</text>
<rect x="137" y="112" width="150" height="9" rx="4.5" fill="#FFF1F5"/>
<rect x="137" y="112" width="17" height="9" rx="4.5" fill="#FF2F78"/>
<text x="305" y="122" class="value">12.0%</text>
<text x="20" y="152" class="label">CSS</text>
<rect x="137" y="142" width="150" height="9" rx="4.5" fill="#FFF1F5"/>
<rect x="137" y="142" width="12" height="9" rx="4.5" fill="#FF2F78"/>
<text x="305" y="152" class="value">8.2%</text>
<text x="20" y="182" class="label">Dockerfile</text>
<rect x="137" y="172" width="150" height="9" rx="4.5" fill="#FFF1F5"/>
<rect x="137" y="172" width="4" height="9" rx="4.5" fill="#FF2F78"/>
<text x="305" y="182" class="value">0.3%</text>
<text x="20" y="250" class="muted" style="font-size:10px">9 owned/collaborated repos analyzed · 4 private</text>
</svg>
